<svg xmlns="http://www.w3.org/2000/svg" viewBox="0 0 64 64"><circle cx="32" cy="32" r="32" fill="#ff4500"/><path fill="#fff" d="M49 30c0-3-2-5-5-5-1 0-2 0-3 1-3-2-7-3-11-3l2-7 6 1c0 2 2 4 4 4s4-2 4-4-2-4-4-4c-1 0-2 1-3 2l-8-2c-1 0-1 0-1 1l-3 9c-4 0-8 1-11 3-1-1-2-1-3-1-3 0-5 2-5 5 0 2 1 4 3 5v1c0 7 9 13 20 13s20-6 20-13v-1c2-1 3-3 3-5ZM22 34c0-2 1-3 3-3s3 1 3 3-1 3-3 3-3-1-3-3Zm18 9c-2 2-5 3-8 3s-6-1-8-3c-1-1 0-2 1-2 2 1 4 2 7 2s5-1 7-2c1 0 2 1 1 2Zm-1-6c-2 0-3-1-3-3s1-3 3-3 3 1 3 3-1 3-3 3Z"/></svg>
